# Blender 5.0.1
# www.blender.org
mtllib n64_logo.mtl
o Text
v -0.177577 0.439738 -0.174267
v -0.365362 0.781833 -0.174267
v 0.174638 0.367183 -0.174267
v 0.178448 -0.001448 -0.374267
v -0.176734 -0.001448 -0.374267
v -0.176148 0.781833 -0.374267
v 0.366638 0.442363 -0.374267
v 0.178448 -0.001448 -0.174267
v -0.177577 0.439738 -0.374267
v -0.176734 -0.001448 -0.174267
v -0.365362 -0.001448 -0.374267
v -0.365362 -0.001448 -0.174267
v -0.365362 0.781833 -0.374267
v -0.176148 0.781833 -0.174267
v 0.174638 0.367183 -0.374267
v 0.174638 0.442363 -0.374267
v 0.174638 0.442363 -0.174267
v 0.366638 0.442363 -0.174267
v 0.366638 -0.001448 -0.374267
v 0.366638 -0.001448 -0.174267
v -0.365362 0.441706 -0.174267
v 0.366638 0.368449 -0.374267
v 0.366638 0.367402 -0.174267
v 0.366638 0.785596 -0.374267
v 0.174638 0.785596 -0.374267
v 0.174638 0.785596 -0.174267
v 0.366638 0.785596 -0.174267
v 0.174638 0.001630 0.173790
v 0.366638 0.001630 0.173790
v 0.174638 0.373252 0.173790
v 0.366638 0.373252 0.173790
v 0.174638 0.001630 0.353912
v 0.366638 0.001630 0.353912
v 0.174638 0.373252 0.353912
v 0.366638 0.373252 0.353912
v 0.174638 0.443271 0.173790
v 0.366638 0.443271 0.173790
v 0.174638 0.443271 0.353912
v 0.366638 0.443271 0.353912
v 0.174638 0.785466 0.173790
v 0.366638 0.785466 0.173790
v 0.174638 0.785466 0.353912
v 0.366638 0.785466 0.353912
v -0.178522 0.000025 0.353912
v -0.178522 0.000025 0.173790
v -0.178522 0.373778 0.353912
v -0.178522 0.373778 0.173790
v -0.368371 0.000025 0.353912
v -0.368371 0.000025 0.173790
v -0.368371 0.373778 0.353912
v -0.368371 0.373778 0.173790
v -0.178522 0.448835 0.353912
v -0.178522 0.448835 0.173790
v -0.368371 0.448835 0.353912
v -0.368371 0.448835 0.173790
v -0.178522 0.782470 0.353912
v -0.178522 0.782470 0.173790
v -0.368371 0.782470 0.353912
v -0.368371 0.782470 0.173790
v -0.365362 0.441712 -0.374267
v -0.365362 0.372156 -0.374267
v -0.365362 0.373323 -0.174267
v -0.177577 0.373587 -0.174267
v -0.177577 0.371273 -0.374267
vn -0.0000 -0.0000 1.0000
vn -0.9999 -0.0103 -0.0000
vn -0.0000 -0.0000 -1.0000
vn 1.0000 -0.0042 -0.0000
vn 0.7840 -0.6207 -0.0000
vn 1.0000 -0.0000 -0.0000
vn -0.0000 -1.0000 -0.0000
vn -1.0000 -0.0000 -0.0000
vn -0.0000 1.0000 -0.0000
vn 1.0000 -0.0020 0.0023
vn -0.0004 0.6397 -0.7686
vn -0.7610 0.6487 -0.0038
vn -0.0000 -0.6163 0.7875
vn -1.0000 -0.0054 0.0012
vn -0.0000 0.6490 0.7608
vn 0.7571 0.6533 -0.0000
vn -1.0000 -0.0000 -0.0086
vn -0.0032 -0.6198 -0.7848
vn -0.7848 -0.6198 -0.0000
s 0
usemtl Material.008
f 2//9 14//9 6//9 13//9
f 26//9 27//9 24//9 25//9
f 41//9 40//9 42//9 43//9
f 56//9 57//9 59//9 58//9
usemtl Material.005
f 3//2 15//2 4//2 8//2
f 1//4 9//4 6//4 14//4
f 1//6 63//6 64//6 9//6
f 10//7 12//7 11//7 5//7
f 12//8 62//8 61//8 11//8
f 3//8 17//8 16//8 15//8
f 18//6 7//6 24//6 27//6
f 18//6 23//6 22//6 7//6
f 20//7 8//7 4//7 19//7
f 14//10 47//10 45//10 1//10
f 22//6 23//6 20//6 19//6
f 25//12 64//12 63//12 26//12
f 28//7 29//7 33//7 32//7
f 20//13 37//13 36//13 8//13
f 23//6 41//6 37//6 20//6
f 29//6 31//6 35//6 33//6
f 30//8 34//8 38//8 36//8
f 35//6 31//6 37//6 39//6
f 8//14 36//14 40//14 3//14
f 39//6 37//6 41//6 43//6
f 46//6 47//6 53//6 52//6
f 49//8 48//8 50//8 51//8
f 45//7 44//7 48//7 49//7
f 51//8 50//8 54//8 55//8
f 55//8 54//8 58//8 59//8
f 30//16 57//16 56//16 34//16
f 60//8 21//8 2//8 13//8
f 61//8 62//8 21//8 60//8
f 21//17 49//17 51//17 2//17
f 1//18 45//18 49//18 21//18
f 45//6 47//6 46//6 44//6
f 36//8 38//8 42//8 40//8
usemtl Material.007
f 17//5 10//5 5//5 16//5
f 3//11 40//11 41//11 23//11
f 2//15 51//15 47//15 14//15
f 32//19 52//19 53//19 28//19
usemtl Material.009
f 18//1 17//1 3//1 23//1
f 11//3 61//3 64//3 5//3
f 15//3 22//3 19//3 4//3
f 1//1 21//1 62//1 63//1
f 26//1 63//1 10//1 17//1
f 22//3 15//3 16//3 7//3
f 12//1 10//1 63//1 62//1
f 7//3 16//3 25//3 24//3
f 18//1 27//1 26//1 17//1
f 32//1 33//1 35//1 34//1
f 34//1 56//1 52//1 32//1
f 34//1 35//1 39//1 38//1
f 31//3 30//3 36//3 37//3
f 38//1 39//1 43//1 42//1
f 44//1 46//1 50//1 48//1
f 54//1 52//1 56//1 58//1
f 47//3 51//3 55//3 53//3
f 50//1 46//1 52//1 54//1
f 55//3 59//3 57//3 53//3
f 9//3 60//3 13//3 6//3
f 29//3 28//3 30//3 31//3
f 16//3 5//3 64//3 25//3
f 64//3 61//3 60//3 9//3
f 28//3 53//3 57//3 30//3
